<svg width="1333" height="1462" viewBox="0 0 1333 1462" fill="none" xmlns="http://www.w3.org/2000/svg">
<path fill-rule="evenodd" clip-rule="evenodd" d="M635.023 32V64H603.023H571.023V95.486V126.972L602.773 127.236L634.523 127.5L634.781 187.977L635.039 248.454L543.403 447.266C493.003 556.612 451.937 646.245 452.145 646.449C452.353 646.653 496.623 612.619 550.523 570.818C611.337 523.655 650.8 493.713 654.523 491.909C659.339 489.575 661.861 489.001 667.305 489.001C671.035 489 675.552 489.612 677.342 490.36C679.133 491.108 725.739 526.687 780.913 569.424C836.086 612.162 881.357 646.987 881.515 646.814C881.673 646.641 840.449 556.787 789.905 447.138L698.007 247.776L698.265 187.638L698.523 127.5L730.273 127.236L762.023 126.972V95.486V64H730.023H698.023V32V0H666.523H635.023V32ZM555.523 644.925L444.523 730.623V1095.56V1460.5L666.773 1460.75L889.023 1461L888.976 1095.75L888.929 730.5L781.942 648C723.1 602.625 673.058 564.089 670.739 562.364L666.523 559.228L555.523 644.925ZM656.023 699.691C644.274 701.658 631.408 708.574 622.003 717.98C602.11 737.872 597.706 765.356 610.304 791C622.584 815.998 651.891 830.336 679.023 824.618C703.134 819.538 723.616 799.578 728.533 776.371C731.634 761.731 729.862 747.47 723.266 734C720.486 728.322 717.52 724.426 711.059 717.964C701.352 708.257 692.058 702.962 680.394 700.49C673.983 699.132 661.757 698.731 656.023 699.691ZM256.023 909.065C187.548 932.12 105.198 959.851 73.023 970.69L14.523 990.398L9.42701 995.48C5.96401 998.933 3.637 1002.42 2.165 1006.35L0 1012.14L0.262001 1225.39L0.523003 1438.64L3.54101 1444.54C6.77401 1450.86 13.186 1456.59 19.849 1459.09C22.917 1460.25 53.01 1460.52 202.273 1460.75L381.023 1461.03V1164.01C381.023 1000.66 380.91 867.033 380.773 867.074C380.636 867.114 324.498 886.01 256.023 909.065ZM952.271 1164.25L952.523 1460.5L1127.52 1460.79C1306.2 1461.09 1310.22 1461.02 1317.25 1457.38C1322.1 1454.87 1327.08 1449.82 1329.84 1444.59L1332.52 1439.5L1332.78 1225.54C1333.07 985.631 1333.73 1006.34 1325.51 997.201C1323.11 994.53 1319.21 991.364 1316.83 990.168C1312.24 987.848 955.687 868 953.383 868C952.234 868 952.059 914.607 952.271 1164.25ZM660.555 1150.14C637.789 1174.73 618.071 1207.41 609.093 1235.44C603.303 1253.51 603.035 1257.72 603.029 1330.75L603.023 1397H666.523H730.023V1329.13C730.023 1273.16 729.759 1259.75 728.516 1252.62C724.427 1229.17 712.164 1202.38 693.365 1175.82C686.066 1165.5 668.239 1144 666.988 1144C666.576 1144 663.681 1146.76 660.555 1150.14ZM185.394 1178.7C142.35 1211.05 109.554 1257.11 99.543 1299.28C95.81 1315.01 95.023 1326.1 95.023 1362.96V1397H190.632H286.241L285.733 1356.75C285.281 1321.06 284.988 1315.37 283.141 1306.55C277.189 1278.14 263.862 1250.9 243.239 1225C230.915 1209.52 207.333 1186.91 193.394 1177.21L190.264 1175.04L185.394 1178.7ZM1131.91 1183.4C1093.42 1214.23 1064.68 1254.41 1053.63 1292.81C1048.66 1310.1 1048.03 1317.46 1048.03 1358.75L1048.02 1397H1143.1H1238.18L1237.76 1355.75C1237.37 1317.95 1237.15 1313.68 1235.16 1304.74C1226.76 1267.09 1206.46 1233.09 1172.89 1200.44C1162.35 1190.19 1148.32 1178.3 1144.09 1176.04C1142.64 1175.26 1140.34 1176.65 1131.91 1183.4Z" fill="#274066"/>
</svg>
