<svg width="1431" height="1244" viewBox="0 0 1431 1244" fill="none" xmlns="http://www.w3.org/2000/svg">
<path fill-rule="evenodd" clip-rule="evenodd" d="M277.8 5.41419C253.735 18.0493 240.364 46.1265 241.758 81.0992C243.517 125.228 243.658 123.875 236.486 131.36C232.867 135.137 227.747 138.226 225.112 138.226C222.477 138.226 217.962 140.735 215.08 143.804C207.794 151.558 190.092 157.678 153.439 165.118C115.705 172.78 110.816 174.516 101.062 183.728C87.1589 196.86 80.7191 216.353 75.0591 262.437C70.3895 300.455 68.6821 306.889 54.801 338.729C48.3545 353.515 41.7713 369.645 40.1715 374.574C35.4055 389.245 36.555 408.523 43.174 424.98C46.3961 432.989 54.1646 456.679 60.4408 477.626C81.0261 546.339 84.3155 553.918 92.6553 551.826C96.9821 550.741 98.3512 552.347 103.462 564.51C106.682 572.169 109.844 580.788 110.489 583.662C111.134 586.534 107.726 606.696 102.918 628.467C91.4342 680.455 80.0111 746.007 71.8213 806.944C67.3892 839.919 62.6345 865.126 57.4518 883.113C53.1944 897.899 46.963 923.606 43.6065 940.24C37.8613 968.725 37.5969 972.657 39.0691 1007.87L40.6331 1045.26L34.8095 1055.19C29.9225 1063.53 29.0442 1067.6 29.3377 1080.53C29.5304 1089.01 28.3675 1101.77 26.7519 1108.91C24.1953 1120.21 24.258 1122.32 27.2539 1125.32C30.3438 1128.41 29.573 1130.45 19.6332 1145.52C7.47522 1163.96 0.0764487 1178.88 0.000264957 1185.1C-0.066956 1190.54 12.6669 1195.63 26.3397 1195.63C35.6005 1195.63 40.3933 1193.7 59.1323 1182.42C71.2007 1175.15 83.8584 1165.83 87.2597 1161.7C93.2783 1154.39 93.3858 1153.77 91.2437 1138.92C89.3413 1125.72 89.664 1121.76 93.6368 1109.66C96.6976 1100.34 97.8179 1092.61 96.9978 1086.49C95.9962 1079.02 96.8051 1075.89 101.307 1069.82C104.354 1065.7 110.001 1055.74 113.857 1047.68L120.866 1033.03L119.454 997.17L118.042 961.312L126.028 938.858C130.42 926.507 139.719 896.313 146.69 871.755C182.817 744.504 200.171 692.725 216.03 664.889C222.761 653.074 229.047 641.389 229.997 638.925C235.444 624.789 236.797 685.979 231.953 727.429C227.754 763.371 227.442 775.834 229.526 824.867C231.213 864.575 231.151 865.46 225.39 882.84C220.203 898.486 219.535 904.076 219.503 932.126C219.486 949.526 218.213 969.308 216.678 976.084C213.185 991.504 213.554 1043.37 217.267 1058.84C218.786 1065.17 219.562 1072.79 218.99 1075.78C218.002 1080.95 218.381 1081.14 227.149 1079.99C232.206 1079.32 238.865 1079.8 241.946 1081.05C246.598 1082.94 245.023 1083.36 232.663 1083.48C221.247 1083.58 217.46 1084.44 216.418 1087.16C215.67 1089.11 215.058 1099.62 215.058 1110.51C215.058 1121.41 213.888 1135.39 212.456 1141.59C209.255 1155.46 211.013 1158.16 225.744 1161.97C231.574 1163.48 244.411 1168 254.27 1172.02C289.082 1186.2 302.562 1187.3 324.216 1177.73L334.375 1173.23L347.488 1181.98C370.184 1197.14 386.335 1196.35 422.145 1178.35C433.154 1172.81 445.299 1168.3 449.175 1168.3C453.542 1168.3 463.757 1172.62 476.054 1179.67C512.842 1200.76 535.108 1207.07 591.495 1212.39C667.755 1219.59 718.886 1224.93 743.863 1228.32C765.884 1231.31 777.121 1231.46 821.167 1229.33C849.511 1227.96 883.794 1225.26 897.35 1223.33C911.359 1221.33 930.219 1220.22 941.044 1220.76C957.82 1221.59 962.36 1222.82 979.136 1231.03C1014.13 1248.17 1035.09 1248.28 1092.11 1231.61C1156.02 1212.92 1185.44 1208.38 1206.31 1213.96C1213.95 1216 1218.95 1215.99 1228.24 1213.91C1244.63 1210.25 1280.12 1193.99 1298.77 1181.6C1313.09 1172.09 1315.63 1171.23 1336.53 1168.81C1348.85 1167.38 1367.95 1164.78 1378.97 1163.04L1399 1159.86L1412.03 1145.82C1429.72 1126.77 1432.35 1121.56 1430.5 1109.23C1428.69 1097.19 1437.45 1108.52 1335.31 986.166C1174.31 793.317 1107.03 710.795 1080.54 673.649C1054.73 637.475 997.929 573.258 994.697 576.612C993.732 577.615 988.323 592.101 982.676 608.8C975.714 629.397 972.414 642.894 972.414 650.769C972.414 660.411 971.37 663.444 966.252 668.68C962.864 672.148 961.956 672.746 964.24 670.008C966.738 667.013 968.759 660.283 969.317 653.099C970.702 635.271 974.215 621.97 985.132 593.226C1010.55 526.305 1012.71 511.646 1012.73 406.607C1012.75 322.25 1011.72 310.852 1002.45 292.441C995.087 277.83 987.07 272.783 968.602 271.132C960.224 270.384 949.807 267.989 945.458 265.811C941.107 263.634 931.68 260.146 924.508 258.062C907.416 253.093 902.952 248.476 902.952 235.756C902.952 228.186 903.999 225.195 907.254 223.452C914.868 219.377 917.145 206.98 915.469 178.712C914.624 164.455 913.389 150.603 912.728 147.933C911.608 143.419 912.159 143.166 920.64 144.304C925.812 144.996 932.729 144.295 936.625 142.68C943.507 139.83 951.27 128.642 948.96 124.903C948.284 123.81 946.339 114.95 944.64 105.213C941.046 84.6366 935.559 72.8596 924.707 62.4401C915.173 53.2886 902.558 50.8691 892.224 56.2099C888.388 58.1948 880.348 59.8167 874.356 59.8167C862.848 59.8167 855.36 64.3667 852.61 73.0276C851.763 75.6912 848.378 77.9965 844.033 78.8702C831.183 81.4532 829.724 82.2305 827.152 87.8715C825.583 91.3148 820.102 95.4347 812.778 98.6718C785.295 110.823 768.418 141.981 783.075 153.507C787.287 156.82 788.677 160.017 788.677 166.393C788.677 171.057 789.88 178.201 791.352 182.27C793.586 188.446 793.402 190.982 790.232 197.627C785.497 207.555 785.461 207.219 791.307 208.077C797.362 208.967 803.131 218.631 806.761 233.957C809.934 247.351 813.34 249.448 826.132 245.897C839.612 242.154 840.562 242.573 839.787 251.919C838.709 264.946 830.192 268.152 796.667 268.157C756.572 268.163 748.931 272.908 728.144 310.726C716.114 332.614 693.169 367.259 679.548 384.108C675.107 389.601 659.319 401.932 642.31 413.196C626.069 423.949 603.707 440.368 592.615 449.683C565.362 472.57 558.696 477.424 545.326 484.125C534.736 489.432 532.193 489.779 511.043 488.816L488.201 487.774L474.728 475.979C459.316 462.486 449.247 445.191 416.537 376.025C394.374 329.166 385.83 300.573 379.839 253.225C377.941 238.233 375.779 224.375 375.033 222.431C374.286 220.486 357.145 210.678 336.941 200.635C300.659 182.601 300.204 182.285 300.204 175.045C300.204 159.692 304.995 157.183 319.49 164.95C331.576 171.427 341.205 166.355 343.88 152.098C344.729 147.568 346.089 142.859 346.903 141.636C347.714 140.41 349.892 134.859 351.74 129.296C354.382 121.346 356.298 119.022 360.703 118.433C369.509 117.255 370.367 114.779 365.366 104.978C361.929 98.2395 360.69 91.5478 360.65 79.5086C360.618 70.5252 359.581 58.7795 358.342 53.4074C356.744 46.4805 356.813 42.7616 358.581 40.6333C364.474 33.5317 355.626 25.8319 321.352 8.23243C301.6 -1.91148 292.83 -2.47826 277.8 5.41419ZM329.334 42.8871C329.334 52.9503 328.462 55.6924 324.352 58.5689C321.614 60.4866 316.633 62.057 313.283 62.057C309.931 62.057 306.671 62.8993 306.035 63.9276C304.256 66.8064 324.151 63.1861 328.094 59.9153C330.445 57.964 331.574 53.1475 331.574 45.0556V33.0837L339.417 37.7121C343.73 40.2548 347.259 41.8341 347.259 41.2181C347.259 40.0822 332.152 30.6933 330.326 30.6933C329.779 30.6933 329.334 36.1797 329.334 42.8871ZM274.564 69.2774C267.768 78.9755 271.548 104.559 280.482 109.34C284.65 111.569 284.618 111.296 279.996 105.045C274.123 97.1037 271.723 80.4227 275.449 73.4599C276.901 70.7447 280.294 67.6375 282.985 66.5532L287.881 64.5818L282.967 64.4384C280.262 64.3622 276.482 66.5375 274.564 69.2774ZM870.885 86.6484C887.299 94.8096 900.906 109.3 907.445 125.584C909.988 131.92 911.453 134.081 910.7 130.385C906.208 108.363 885.865 87.5848 862.62 81.274C859.539 80.4361 863.258 82.8556 870.885 86.6484ZM860.379 94.5475C868.389 98.8085 878.889 106.6 883.711 111.86C891.97 120.871 892.23 120.989 888.193 113.906C883.503 105.679 870.724 95.9298 857.253 90.3022C843.457 84.5403 844.678 86.1958 860.379 94.5475ZM805.166 131.333C801.296 133.692 797.444 136.729 796.609 138.083C795.771 139.436 798.827 138.004 803.398 134.904C818.209 124.854 831.25 128.49 831.25 142.666C831.25 148.775 841.624 158.388 848.219 158.388C851.358 158.388 855.882 161.484 859.94 166.404L866.547 174.42L871.459 167.524C879.297 156.518 884.424 158.594 887.442 173.994C888.966 181.779 888.997 181.799 889.25 175.13C889.533 167.719 884.202 158.388 879.689 158.388C878.125 158.388 874.513 160.868 871.665 163.899L866.487 169.413L862.277 164.063C859.962 161.119 854.302 157.501 849.7 156.018C838.485 152.407 836.287 150.377 834.506 141.992C831.333 127.06 819.329 122.699 805.166 131.333ZM236.3 149.219C242.186 160.783 259.359 178.033 267.737 180.798C273 182.534 277.374 182.567 282.653 180.912L290.121 178.566L282.465 179.698C270.184 181.512 256.614 173.508 244.859 157.515C232.428 140.596 231.406 139.608 236.3 149.219ZM254.071 187.268C250.266 189.588 245.052 194.154 242.486 197.416C238.388 202.625 237.682 202.858 236.674 199.347C236.044 197.152 236.013 199.889 236.609 205.434C237.203 210.978 237.891 268.945 238.137 334.249C238.579 451.475 238.52 453.238 233.441 473.145C226.981 498.46 214.316 522.848 204.083 529.674C199.895 532.467 197.549 534.752 198.869 534.752C208.992 534.752 227.194 505.203 235.941 474.57C240.7 457.902 240.826 454.219 240.826 330.889C240.826 189.317 239.768 198.612 257.078 188.137C261.696 185.341 264.465 183.054 263.233 183.051C262.001 183.049 257.878 184.947 254.071 187.268ZM233.161 188.818C233.268 191.428 233.799 191.959 234.514 190.173C235.161 188.556 235.081 186.622 234.337 185.879C233.593 185.135 233.064 186.457 233.161 188.818ZM302.604 223.649C302.517 224.427 304.97 231.768 308.054 239.963C317.075 263.92 324.702 323.207 328.547 399.217C329.481 417.699 330.622 430.502 331.081 427.668C332.52 418.783 327.424 333.31 323.707 304.005C319.683 272.27 313.915 247.092 307.285 232.317C304.798 226.772 302.689 222.872 302.604 223.649ZM772.714 296.572C775.248 301.501 783.402 305.544 785.858 303.089C786.586 302.361 785.542 301.765 783.536 301.765C781.529 301.765 777.708 299.498 775.044 296.725C770.213 291.7 770.206 291.7 772.714 296.572ZM966.642 306.806C953.384 321.596 946.469 325.749 928.404 329.766C908.903 334.106 899.192 341.277 891.603 356.954L886.669 367.14L880.243 353.753C872.987 338.638 861.235 326.948 845.055 318.751C832.717 312.5 802.071 303.893 793.297 304.216C790.14 304.332 794.11 305.753 802.121 307.373C844.239 315.89 868.32 332.181 879.947 360.03L886.465 375.638L891.39 363.758C898.867 345.721 910.151 335.972 927.828 332.275C947.585 328.142 954.118 324.347 966.586 309.756C979.057 295.159 979.1 292.907 966.642 306.806ZM764.282 370.142C757.578 385.081 753.67 389.942 730.672 411.97C681.894 458.696 658.38 472.856 594.099 494.215C555.66 506.987 551.44 508.954 528.724 524.694C515.367 533.948 501.37 542.132 497.617 542.882C491.652 544.076 491.089 544.802 493.151 548.653C498.152 558 492.759 556.57 468.393 542.098C450.743 531.614 429.643 507.737 397.944 462.376C380.89 437.971 366.704 418.313 366.419 418.691C366.137 419.07 366.791 444.078 367.874 474.265C370.027 534.239 369.494 616.336 366.935 618.883C366.05 619.766 362.816 618.847 359.751 616.838C354.246 613.231 354.165 613.276 353.049 620.456C352.426 624.453 351.299 635.788 350.544 645.646C347.658 683.271 342.704 712.291 330.85 761.019C324.106 788.742 317.003 819.49 315.067 829.347C311.381 848.109 303.664 920.92 301.296 959.282C300.536 971.604 298.903 986.726 297.666 992.886C296.429 999.047 294.596 1011.98 293.592 1021.63C291.997 1036.99 290.897 1040.08 284.784 1046.38C276.334 1055.1 276.126 1059.55 283.399 1075.99C289.917 1090.73 290.189 1093.28 285.64 1097.06C279.164 1102.43 282.53 1120.18 291.952 1130.34C294.641 1133.24 301.004 1138.5 306.091 1142.02L315.34 1148.42L326.114 1132.26C332.038 1123.37 340.246 1110.18 344.351 1102.94C348.456 1095.7 369.144 1065.98 390.325 1036.89C461.714 938.838 473.807 919.874 550.524 785.662C651.958 608.208 671.304 579.739 726.643 526.488C744.674 509.137 777.132 482.301 785.945 477.458C787.644 476.526 781.405 424.547 778.304 413.778C776.355 407.001 774.108 390.61 773.314 377.349L771.871 353.242L764.282 370.142ZM957.916 417.699C957.056 423.553 953.294 435.901 949.554 445.142C939.827 469.178 940.163 476.026 952.234 499.493C957.771 510.26 962.922 519.071 963.677 519.071C966.514 519.071 967.809 474.386 965.723 448.502C964.531 433.717 963.534 418.344 963.505 414.338C963.424 403.359 959.691 405.604 957.916 417.699ZM329.511 437.487C329.618 440.097 330.149 440.628 330.864 438.842C331.511 437.225 331.431 435.292 330.687 434.548C329.943 433.804 329.414 435.126 329.511 437.487ZM249.363 486.244C255.655 488.677 293.07 488.648 299.51 486.206C302.515 485.068 292.79 484.347 274.436 484.347C255.695 484.347 246.295 485.057 249.363 486.244ZM814.445 486.591C842.863 495.093 889.441 499.009 912.807 494.858C918.01 493.935 908.493 493.265 889.279 493.2C869.021 493.133 849.933 491.724 837.972 489.412C807.312 483.491 801.919 482.843 814.445 486.591ZM341.478 542.593C341.476 567.236 341.803 577.622 342.206 565.675C342.607 553.728 342.61 533.565 342.209 520.87C341.81 508.174 341.48 517.951 341.478 542.593ZM119.828 526.15C113.364 529.705 98.5394 544.209 98.5529 546.969C98.5596 548.259 100.827 546.639 103.594 543.371C106.362 540.102 113.061 534.304 118.484 530.489C128.072 523.742 128.863 521.183 119.828 526.15ZM493.465 528.007C489.458 530.449 486.182 533.469 486.182 534.719C486.182 538.709 489.644 537.183 496.265 530.272C503.819 522.388 503.33 521.992 493.465 528.007ZM265.552 565.444C260.981 597.211 259.303 601.996 248.256 614.759C243.553 620.192 239.706 625.221 239.706 625.936C239.706 627.97 258.438 606.374 261.429 600.89C264.17 595.867 272.075 541.726 270.325 539.975C269.791 539.444 267.645 550.903 265.552 565.444ZM135.67 553.358C132.127 559.758 125.67 570.037 121.318 576.197C113.68 587.016 113.635 587.19 120.032 581.305C126.338 575.503 144.769 544.379 142.966 542.578C142.495 542.105 139.21 546.957 135.67 553.358ZM956.901 566.284C952.705 590.139 950.17 594.85 933.831 609.178C920.418 620.94 918.917 623.171 915.626 636.279C913.651 644.136 911.397 652.23 910.615 654.266C909.594 656.927 910.423 657.967 913.569 657.967C917.846 657.967 922.968 653.489 926.385 646.766C927.324 644.917 925.641 646.322 922.648 649.886C913.849 660.362 912.3 656.168 918.023 637.379C922.818 621.643 924.234 619.446 934.364 612.01C940.464 607.534 947.538 600.946 950.085 597.37C954.535 591.122 962.429 557.453 960.677 552.197C960.211 550.795 958.51 557.135 956.901 566.284ZM342.955 592.065C343.062 594.675 343.593 595.206 344.308 593.42C344.956 591.803 344.875 589.87 344.131 589.126C343.387 588.382 342.858 589.704 342.955 592.065ZM941.044 654.833C941.044 659.118 920.255 680.609 917.23 679.449C913.593 678.055 913.069 681.673 916.589 683.849C921.164 686.676 946.182 657.877 942.42 654.116C941.662 653.359 941.044 653.681 941.044 654.833ZM939.823 670.499C932.688 678.624 924.75 686.12 922.184 687.16C918.243 688.753 918.14 689.069 921.521 689.19C925.574 689.333 941.593 674.263 950.137 662.266C957.858 651.423 953.56 654.855 939.823 670.499ZM947.363 673.564C940.806 679.677 936.489 684.718 937.768 684.765C939.045 684.812 945.057 679.81 951.127 673.649C965.36 659.201 962.826 659.143 947.363 673.564ZM729.085 771.1C729.087 790.815 729.43 798.579 729.847 788.357C730.262 778.132 730.259 762.003 729.84 752.513C729.421 743.021 729.083 751.386 729.085 771.1ZM731.187 829.347C731.194 839.204 731.588 842.959 732.061 837.69C732.536 832.421 732.529 824.356 732.047 819.768C731.566 815.18 731.178 819.49 731.187 829.347ZM876.133 820.386C876.133 821.618 877.11 824.138 878.304 825.987C879.499 827.835 880.476 828.339 880.476 827.107C880.476 825.875 879.499 823.354 878.304 821.506C877.11 819.658 876.133 819.154 876.133 820.386ZM880.545 832.575C880.545 833.736 881.542 835.299 882.761 836.052C884.029 836.836 884.406 835.938 883.642 833.944C882.152 830.064 880.545 829.354 880.545 832.575ZM889.62 847.269C892.54 852.198 898.128 860.767 902.033 866.311C913.542 882.643 918.393 894.041 924.189 918.389C935.03 963.917 937.622 990.514 937.233 1052.25C937.033 1083.67 935.919 1114.92 934.757 1121.7L932.641 1134.02L932.361 1118.23C932.074 1102.05 929.814 1097.06 922.764 1097.06C918.659 1097.06 908.982 1111.73 906.51 1121.7C905.746 1124.78 907.494 1122.26 910.396 1116.1C916.517 1103.1 921.55 1098.22 926.777 1100.22C930.087 1101.49 930.349 1105.14 929.168 1133.52C928.01 1161.31 926.302 1175.44 919.766 1211.31C918.787 1216.69 919.011 1218.1 920.479 1215.79C922.717 1212.28 932.164 1161.87 937.067 1127.3C940.885 1100.35 940.865 999.081 937.033 973.844C932.108 941.407 925.061 908.287 920.47 895.995C918.052 889.527 909.99 874.91 902.553 863.511C888.381 841.787 880.527 831.926 889.62 847.269ZM733.141 875.272C731.956 943.374 721.214 994.916 692.719 1069.23C682.402 1096.13 670.767 1131.56 665.671 1151.58C657.145 1185.09 646.838 1210.3 642.711 1207.75C639.607 1205.84 640.506 1177.11 644.225 1159.37C650.136 1131.17 665.091 1082.29 681.049 1039.01C689.492 1016.1 697.005 993.334 697.742 988.406C698.63 982.491 697.597 984.445 694.706 994.154C692.297 1002.24 685.869 1020.4 680.417 1034.5C655.176 1099.8 638.53 1161.66 638.583 1189.97C638.622 1209.3 641.178 1217.36 645.35 1211.31C655.198 1197.04 659.96 1184.85 668.6 1151.76C674.072 1130.81 686.127 1094.09 695.551 1069.65C724.239 995.277 735.928 936.712 734.349 875.272L733.627 847.269L733.141 875.272ZM992.788 893.822C992.674 894.783 997.196 910.409 1002.84 928.546C1021.84 989.611 1051.86 1102.8 1059.89 1143.61C1061.41 1151.35 1063.12 1157.21 1063.7 1156.64C1066.14 1154.2 1042.21 1054.29 1023.67 989.526C1012.37 950.068 993.174 890.573 992.788 893.822ZM1212.49 900.475C1263.71 973.472 1375.44 1121.7 1379.24 1121.7C1379.81 1121.7 1371.54 1110.36 1360.88 1096.5C1328.88 1054.91 1264.14 968.418 1235.96 929.599C1221.42 909.578 1209.05 893.195 1208.46 893.195C1207.87 893.195 1209.68 896.47 1212.49 900.475ZM616.3 944.219C596.998 992.263 565.745 1062.96 542.043 1112.18C531.216 1134.67 522.86 1153.07 523.474 1153.07C525.023 1153.07 568.026 1064.21 583.65 1028.73C600.312 990.892 632.359 910.899 631.283 909.826C630.824 909.367 624.082 924.843 616.3 944.219ZM699.613 968.243C699.638 973.172 700.097 974.924 700.633 972.137C701.168 969.35 701.148 965.318 700.588 963.176C700.028 961.034 699.589 963.315 699.613 968.243ZM1237.02 1024.98C1233.26 1032.01 1234.13 1045.91 1238.79 1053.37C1241.1 1057.07 1248.58 1066.48 1255.41 1074.28C1267.25 1087.81 1280.27 1109.63 1287.37 1127.84C1290.13 1134.91 1290.45 1135.19 1289.37 1129.54C1286.99 1117.18 1272.54 1091.05 1259.66 1075.83C1237.39 1049.53 1232.3 1036.88 1239.84 1026.57C1242.78 1022.56 1243.11 1022.56 1251.57 1026.71C1261.86 1031.75 1278.42 1051.04 1305.57 1089.62C1330.99 1125.72 1337.26 1133.11 1319.49 1106.02C1299.77 1075.95 1266.7 1032.93 1259.21 1027.6C1249.32 1020.56 1239.98 1019.46 1237.02 1024.98ZM529.717 1042.73C517.868 1064.09 493.532 1102.3 478.542 1123.08C470.251 1134.57 468.635 1137.61 473.917 1131.78C489.947 1114.08 544.167 1027.61 539.235 1027.61C538.612 1027.61 534.33 1034.42 529.717 1042.73ZM281.506 1038.74C277.992 1040.98 268.438 1043.49 260.219 1044.31C240.387 1046.3 237.465 1047.32 237.465 1052.25C237.465 1057.66 242.854 1059.03 255.39 1056.83L265.474 1055.05L252.404 1054.77C233.468 1054.37 236.712 1049.35 257.246 1047.27C272.583 1045.73 284.871 1041.44 287.872 1036.59C289.673 1033.67 289.144 1033.85 281.506 1038.74ZM57.6489 1071.72C55.4911 1072.28 53.7277 1074.15 53.7277 1075.86C53.7277 1081.01 60.9024 1083.08 72.7736 1081.36L83.9771 1079.73L69.9728 1079.44C62.2715 1079.27 55.9684 1078.25 55.9684 1077.18C55.9684 1074.31 66.9971 1072.58 78.465 1073.65C86.2133 1074.37 87.2015 1074.14 82.8568 1072.6C76.8696 1070.48 64.0842 1070.04 57.6489 1071.72ZM235.146 1093.79C230.218 1099.73 235.325 1101.68 249.878 1099.43L263.233 1097.37L250.344 1097.77C232.701 1098.33 235.079 1094.05 253.325 1092.41L267.714 1091.11L252.863 1090.73C241.859 1090.44 237.27 1091.23 235.146 1093.79ZM1161.47 1092.12C1162.31 1093.48 1169.62 1104.47 1177.71 1116.55C1185.81 1128.62 1197.42 1148.58 1203.53 1160.91C1209.64 1173.23 1213.96 1180.79 1213.13 1177.71C1208.69 1161.18 1170.52 1096.18 1162.26 1091.08C1160.95 1090.27 1160.61 1090.73 1161.47 1092.12ZM56.5846 1094.61C73.1434 1096.67 70.2797 1100.28 51.0075 1101.64C41.5002 1102.32 32.9296 1103.73 31.9616 1104.78C30.9936 1105.82 32.7212 1106.04 35.8021 1105.26C38.8831 1104.48 47.7383 1103.83 55.4777 1103.81C66.298 1103.79 69.8719 1102.95 70.9295 1100.19C72.879 1095.11 67.6671 1092.6 55.9684 1092.96L45.8853 1093.28L56.5846 1094.61ZM270.656 1094.11C272.272 1094.76 274.206 1094.67 274.95 1093.93C275.693 1093.19 274.371 1092.66 272.01 1092.75C269.399 1092.86 268.868 1093.39 270.656 1094.11ZM1290.77 1140.93C1290.88 1143.54 1291.41 1144.07 1292.12 1142.28C1292.77 1140.67 1292.69 1138.73 1291.95 1137.99C1291.2 1137.25 1290.67 1138.57 1290.77 1140.93ZM1064.64 1164.27C1064.64 1167.35 1065.14 1168.61 1065.77 1167.07C1066.39 1165.53 1066.39 1163.01 1065.77 1161.47C1065.14 1159.93 1064.64 1161.19 1064.64 1164.27ZM1066.7 1174.53C1066.81 1177.14 1067.34 1177.67 1068.05 1175.89C1068.7 1174.27 1068.62 1172.34 1067.88 1171.59C1067.13 1170.85 1066.6 1172.17 1066.7 1174.53ZM1068.94 1185.73C1069.05 1188.34 1069.58 1188.88 1070.29 1187.09C1070.94 1185.47 1070.86 1183.54 1070.12 1182.8C1069.37 1182.05 1068.84 1183.37 1068.94 1185.73Z" fill="#274066"/>
</svg>
