<svg width="268" height="242" viewBox="0 0 268 242" fill="none" xmlns="http://www.w3.org/2000/svg">
<path fill-rule="evenodd" clip-rule="evenodd" d="M57.6874 0.55473C49.2274 2.15881 37.1323 7.31931 29.4252 12.6128C24.2729 16.1515 16.1094 24.3269 12.5044 29.5575C3.97349 41.9363 -0.0203396 55.3973 7.78776e-05 71.7048C0.0258216 92.8148 6.59313 113.168 20.1832 134.264C34.391 156.317 62.4455 183.291 121.423 231.604L134.114 242L151.09 228.013C193.4 193.15 224.698 164.409 237.255 148.887C252.767 129.711 262.577 109.909 266.798 89.2468C267.936 83.6786 268.187 78.8983 267.879 68.6907C267.532 57.1786 267.153 54.4428 265.064 48.3553C257.624 26.6701 241.642 10.5984 220.246 3.2843C209.521 -0.382027 194.003 -1.05556 182.659 1.65187C164.25 6.0458 146.223 19.5599 137.295 35.6601C135.743 38.457 134.275 40.7497 134.031 40.7541C133.787 40.7585 132.484 38.6697 131.134 36.112C125.223 24.903 112.686 13.0541 100.34 7.01002C89.8724 1.88407 84.9749 0.751467 71.8908 0.429766C65.2995 0.266699 58.908 0.323424 57.6874 0.55473Z" fill="#274066"/>
</svg>
