<svg width="951" height="560" viewBox="0 0 951 560" fill="none" xmlns="http://www.w3.org/2000/svg">
<path fill-rule="evenodd" clip-rule="evenodd" d="M71.8914 3.17012C51.1829 8.74681 35.5545 18.3796 17.3043 36.8127C7.78588 46.4267 0 55.3989 0 56.7517C0 58.1044 34.1093 108.794 75.7969 169.395C145.058 270.078 151.363 279.956 148.924 283.949C147.456 286.352 113.346 336.207 73.1269 394.734C32.9075 453.261 0 502.086 0 503.229C0 507.354 28.5888 535.62 40.75 543.516C83.2724 571.133 136.479 563.287 174.324 523.818C185.525 512.138 344.756 282.034 343.627 279.163C343.25 278.2 308.046 226.544 265.397 164.37C181.41 41.9301 167.134 24.2374 142.354 11.8781C118.733 0.0955063 94.4499 -2.90573 71.8914 3.17012ZM375.977 3.18273C361.576 7.06061 351.998 12.0668 336.03 24.0696C323.565 33.4403 304.677 54.8851 305.636 58.5805C305.883 59.5369 339.594 109.06 380.547 168.634C421.503 228.209 455.488 277.724 456.074 278.67C456.657 279.616 422.808 330.305 380.851 391.316C315.005 487.067 304.868 502.818 306.758 506.438C307.962 508.745 315.756 517.365 324.077 525.59C335.29 536.677 343.887 542.868 357.276 549.502C373.972 557.775 376.902 558.53 395.849 559.443C413.799 560.307 418.206 559.785 431.248 555.248C450.572 548.528 467.106 537.413 481.594 521.4C487.995 514.324 528.515 457.185 571.635 394.426L650.035 280.316L646.268 274.88C644.197 271.89 608.194 219.424 566.261 158.288C484.801 39.5203 473.871 25.9047 449.729 13.1155C425.7 0.387022 399.475 -3.1448 375.977 3.18273ZM679.821 3.25819C660.092 8.56223 643.958 18.5936 625.576 36.9826C616.058 46.5022 608.272 55.315 608.272 56.5671C608.272 57.8171 642.339 108.387 683.976 168.94C725.611 229.495 759.215 280.249 758.649 281.726C758.083 283.202 724.015 333.265 682.944 392.979C641.876 452.691 608.272 502.296 608.272 503.212C608.272 507.12 637.618 536.163 649.022 543.543C690.887 570.64 742.53 563.851 780.163 526.303C789.902 516.587 816.479 479.727 871.506 399.619C914.19 337.48 949.925 284.981 950.919 282.957C952.335 280.071 935.409 254.102 872.549 162.719C807.038 67.4835 789.597 43.5262 777.203 31.7541C748.277 4.27958 713.675 -5.84615 679.821 3.25819Z" fill="#003366"/>
</svg>
