<svg width="1714" height="1218" viewBox="0 0 1714 1218" fill="none" xmlns="http://www.w3.org/2000/svg">
<path fill-rule="evenodd" clip-rule="evenodd" d="M864.359 2.66739C789.859 11.7543 711.713 40.1504 658.855 77.3341C644.321 87.5641 625.101 96.826 609.82 100.971C516.019 126.412 416.156 178.612 316.111 254.503C265.594 292.823 163.986 394.451 128.179 442.467C-1.29333 616.094 -33.2317 774.876 34.8677 906.335C52.2211 939.832 63.5243 955.393 115.658 1017.55C141.22 1048.02 161.066 1074.84 159.763 1077.13C158.457 1079.43 158.776 1080.06 160.467 1078.53C164.145 1075.21 205.322 1109.49 205.237 1115.8C205.202 1118.22 203.479 1117.57 201.407 1114.36C198.537 1109.92 197.623 1111.48 197.577 1120.91C197.546 1127.72 195.909 1137.53 193.937 1142.71C190.446 1151.89 191.359 1152.44 229.904 1164.35C278.243 1179.29 321.469 1189.38 380.268 1199.45C423.855 1206.92 482.331 1213.36 468.726 1209.19C460.382 1206.63 459.915 1201.5 467.754 1198.49C470.962 1197.26 473.586 1193.58 473.586 1190.3C473.586 1187.03 470.962 1184.35 467.754 1184.35C464.546 1184.35 461.922 1182.6 461.922 1180.46C461.922 1178.32 452.734 1176.29 441.508 1175.94C421.48 1175.33 421.608 1175.26 448.313 1172.43C568.111 1159.76 684.681 1117.34 790.481 1047.94C811.867 1033.91 839.322 1014.31 851.492 1004.38L873.624 986.325L898.152 997.391C999.772 1043.24 1150.26 1069.02 1263.05 1059.91C1362.32 1051.89 1460.55 1016.66 1522.27 966.922C1535.35 956.381 1547.08 948.499 1548.35 949.405C1549.61 950.307 1549.77 949.891 1548.71 948.472C1547.65 947.053 1556.24 935.968 1567.81 923.84C1593.34 897.077 1619.38 857.397 1635.44 820.793C1642.01 805.823 1655.12 780.044 1664.57 763.503C1707.87 687.79 1725.36 576.85 1706.42 498.065C1686.74 416.202 1639.18 339.809 1559.81 262.552C1430.05 136.241 1242.39 41.4025 1060.72 10.3118C1004.45 0.680492 910.586 -2.97062 864.359 2.66739ZM842.514 25.9077C749.923 39.5166 676.792 73.893 627.174 127.131C540.212 220.438 550.703 365.747 654.341 503.326C683.001 541.373 758.045 616.658 767.315 616.658C769.908 616.658 774.061 614.216 776.538 611.23C780.17 606.852 772.79 597.757 738.441 564.259C608.311 437.358 563.32 296.077 617.826 185.514C653.143 113.872 723.408 66.8085 828.221 44.5908C880.985 33.4042 988.508 32.3894 1046.94 42.5262C1231.11 74.4762 1401.72 159.746 1521.89 279.913C1570.94 328.972 1603.44 372.773 1628.5 423.609C1652.8 472.904 1663.42 513.84 1663.35 557.984C1663.27 618.034 1648.27 655.02 1607.06 696.776C1559.26 745.22 1490.75 770.91 1383.9 780.471C1297.92 788.166 1188.69 776.26 1106.22 750.205C1081.03 742.25 1074.58 741.382 1071.91 745.605C1066.05 754.844 1068.01 756.239 1100.57 766.065C1225.18 803.665 1363.84 811.496 1476.24 787.284C1616.83 756.994 1698.4 677.101 1698.4 569.68C1698.4 509.466 1665.66 426.871 1615.27 359.938C1584.07 318.489 1519.11 255.6 1468.9 218.23C1332.36 116.617 1168.37 47.7443 1014.83 27.5369C968.23 21.4012 878.924 20.5574 842.514 25.9077ZM844.917 107.293C843.595 109.432 836.931 111.267 830.107 111.368C818.384 111.547 818.975 112.212 840.811 123.476C903.339 155.73 940.18 221.986 940.18 302.182C940.18 429.325 864.032 573.564 725.738 708.375C603.35 827.679 448.822 913.482 313.101 937.5C263.075 946.353 195.08 943.97 158.052 932.071C102.948 914.36 63.0577 875.897 45.2999 823.355C32.7097 786.101 33.6623 726.552 47.7067 673.038C90.8628 508.591 255.341 319.621 455.37 204.675C494.603 182.131 552.359 154.672 574.651 147.969C585.441 144.722 586.179 143.229 562.115 173.394C544.361 195.654 518.718 243.138 508.402 272.86C456.268 423.092 497.873 600.183 613.417 719.849C626.757 733.664 638.955 744.971 640.526 744.971C649.438 744.971 645.791 737.444 625.393 713.744C576.132 656.509 538.832 587.018 521.805 520.761C503.826 450.796 504.798 358.97 524.313 284.47C538.182 231.504 575.02 160.924 605.216 129.449L619.397 114.669L578.57 128.788C376.364 198.707 161.373 385.702 67.4787 573.327C-9.15158 726.444 0.0208695 861.04 91.2594 922.378C230.596 1016.05 497.344 935.104 725.131 730.032C820.032 644.591 902.526 528.367 938.069 430.021C962.826 361.525 970.719 280.473 957.557 229.937C945.017 181.797 912.468 137.871 872.135 114.665C850.594 102.27 848.39 101.675 844.917 107.293ZM986.56 199.333C1000.78 220.854 1021.17 267.483 1032.17 303.651C1042.06 336.22 1042.82 343.635 1043.01 410.579C1043.18 468.075 1041.75 488.757 1035.87 513.619C967.239 804.314 707.303 1045.61 434.832 1071.58C367.203 1078.02 296.125 1066.72 246.577 1041.65C222.917 1029.68 191.324 1000.5 181.786 981.806C175.791 970.056 171.906 967.233 158.865 965.145C132.296 960.899 101.602 947.485 76.9816 929.357L53.4575 912.039L63.7771 932.519C108.893 1022.03 178.602 1080.49 274.129 1108.91C320.112 1122.59 406.65 1126.15 461.922 1116.65C604.248 1092.17 751.684 1012.36 875.545 892.745C1028.74 744.8 1112.29 564.738 1095.7 418.286C1088.94 358.566 1061.12 287.103 1028.69 246.12C1022.27 238.002 1017.88 230.482 1018.96 229.413C1021.81 226.555 1064.95 281.251 1082.06 309.414C1100.09 339.093 1120.14 389.322 1128.16 424.865C1148.28 514.175 1136.25 602.155 1089.33 708.744C1085.52 717.38 1179.21 740.546 1253.19 749.264C1301.98 755.015 1416.35 751.659 1459.85 743.202C1494.68 736.433 1523.32 727.299 1551.61 713.951C1566.83 706.765 1570.08 703.413 1570.08 694.89C1570.08 674.372 1553.88 625.535 1533.15 583.608C1473.23 462.387 1349.8 348.188 1208.69 283.397C1154.61 258.571 1064.37 230.563 1025.02 226.387C1018.46 225.691 1007.89 218.191 996.502 206.145C984.094 193.014 980.972 190.876 986.56 199.333ZM774.928 259.107C744.957 263.75 692.061 278.887 652.463 294.16C616.271 308.115 616.154 308.426 630.735 351.298C655.935 425.386 711.32 505.434 776.379 561.794L799.973 582.231L823.823 545.981C881.176 458.817 916.851 361.653 916.851 292.624V267.658L900.325 263.093C878.197 256.977 803.927 254.616 774.928 259.107ZM428.871 443.96C297.922 550.981 199.233 696.939 175.81 818.219C164.6 876.279 170.915 940.046 186.371 924.804C189.676 921.542 204.599 919.944 231.708 919.944C333.181 919.944 466.203 870.314 587.844 787.07C590.037 785.569 585.806 777.287 577.913 767.628C556.453 741.375 526.459 695.131 511.513 665.262C478.746 599.779 464.632 540.953 464.177 467.939C464.006 440.678 462.991 418.41 461.922 418.453C460.852 418.5 445.98 429.978 428.871 443.96ZM1607.28 835.716C1549.01 893.033 1469.49 929.074 1365.17 945.432C1332.11 950.615 1306.47 951.579 1241.66 950.074C1148.44 947.912 1088.61 938.246 1017.21 913.812C995.161 906.265 974.494 899.227 971.286 898.173C967.764 897.019 957.269 904.566 944.799 917.218L924.145 938.172L962.297 952.784C1049.79 986.294 1136.14 1002.27 1229.86 1002.29C1379.91 1002.33 1501.99 959.95 1580.92 880.419C1603.94 857.23 1635.53 816.119 1631.97 813.988C1631.08 813.452 1619.97 823.231 1607.28 835.716ZM1614.8 982.036C1591.27 988.125 1566.78 994.817 1560.36 996.901C1553.95 998.985 1540.82 1002.9 1531.2 1005.6C1521.58 1008.29 1505.83 1013.08 1496.2 1016.23C1486.58 1019.38 1473.48 1022.65 1467.09 1023.48C1460.7 1024.31 1452.17 1026.04 1448.13 1027.32C1443.37 1028.83 1441.72 1028.15 1443.43 1025.39C1445.08 1022.72 1443.81 1021.99 1440.05 1023.43C1436.74 1024.71 1435.17 1027.58 1436.56 1029.82C1438.02 1032.18 1437.22 1032.75 1434.68 1031.18C1432.25 1029.69 1418.42 1033.6 1403.94 1039.88C1375.44 1052.24 1326.94 1068.92 1306.62 1073.35C1299.65 1074.86 1294.93 1077.7 1296.13 1079.64C1297.33 1081.58 1295.89 1082.24 1292.94 1081.11C1289.99 1079.97 1271.97 1082.52 1252.89 1086.76C1209.69 1096.37 1120.99 1109.18 1073.27 1112.71C1053.44 1114.18 1036.28 1116.9 1035.13 1118.76C1033.98 1120.61 1029.77 1122.13 1025.77 1122.13C1021.77 1122.13 1015.49 1125.14 1011.81 1128.83C1008.13 1132.5 997.07 1136.63 987.232 1137.99C957.611 1142.08 1128.36 1141.69 1189.03 1137.53C1409.2 1122.41 1589.67 1071.41 1655.81 1005.61C1688.66 972.93 1689.05 972.09 1672 971.475C1664.06 971.191 1638.32 975.943 1614.8 982.036ZM1408.94 1044.01C1407.74 1045.94 1410.27 1046.62 1414.55 1045.5C1423.63 1043.12 1424.77 1040.48 1416.72 1040.48C1413.64 1040.48 1410.14 1042.07 1408.94 1044.01ZM471.642 1176.57C470.32 1178.71 471.094 1180.46 473.357 1180.46C475.643 1180.46 477.475 1188.23 477.475 1197.96C477.475 1214.88 477.863 1215.45 489.369 1215.45C495.909 1215.45 500.283 1213.87 499.086 1211.93C497.888 1209.99 493.599 1209.27 489.556 1210.33C483.264 1211.97 481.997 1209.68 480.784 1194.45C479.489 1178.14 480.021 1176.85 487.172 1179.04C498.724 1182.57 499.568 1184.46 492.048 1189.95C488.311 1192.69 485.31 1197.36 485.38 1200.33C485.469 1204 487.654 1203.17 492.184 1197.77C495.855 1193.39 502.36 1188.39 506.637 1186.67C513.2 1184.03 511.684 1182.71 496.916 1178.17C475.834 1171.7 474.698 1171.63 471.642 1176.57ZM515.063 1186.94C511.108 1190.89 511.971 1196.01 516.587 1196.01C518.85 1196.01 519.717 1194.41 518.508 1192.45C517.298 1190.5 518.508 1188.01 521.194 1186.93C523.893 1185.84 524.196 1184.83 521.867 1184.65C519.55 1184.49 516.486 1185.51 515.063 1186.94ZM498.86 1199.9C497.538 1202.04 499.187 1203.79 502.519 1203.79C505.851 1203.79 508.581 1202.04 508.581 1199.9C508.581 1197.76 506.936 1196.01 504.922 1196.01C502.908 1196.01 500.182 1197.76 498.86 1199.9ZM512.776 1213.83C512.963 1218.36 513.885 1219.28 515.125 1216.18C516.249 1213.38 516.109 1210.02 514.818 1208.73C513.527 1207.44 512.609 1209.73 512.776 1213.83Z" fill="#274066"/>
</svg>
