<svg width="1241" height="1325" viewBox="0 0 1241 1325" fill="none" xmlns="http://www.w3.org/2000/svg">
<path fill-rule="evenodd" clip-rule="evenodd" d="M632.54 201.329C599.032 247.511 593.647 257.887 603.188 257.887C607.869 257.887 680.829 157.925 678.684 154.453C674.057 146.969 666.17 154.981 632.54 201.329ZM469.565 173.41C467.883 177.793 542.111 266.326 546.256 264.882C553.636 262.308 546.683 250.825 514.176 211.896C481.403 172.647 472.729 165.166 469.565 173.41ZM569.869 191.258C569.108 193.237 568.821 207.002 569.23 221.846C569.918 246.861 570.35 248.833 575.148 248.833C580.023 248.833 580.323 247.107 580.323 219.119C580.323 192.856 579.795 189.302 575.787 188.531C573.292 188.05 570.63 189.276 569.869 191.258ZM892.14 219.052C858.694 228.768 787.776 249.032 734.542 264.083C681.308 279.134 637.239 291.96 636.611 292.591C634.349 294.852 620.735 348.8 616.173 373.575C612.444 393.833 611.502 412.796 611.445 468.723C611.373 540.707 613.112 560.5 623.488 605.831C644.925 699.478 702.731 768.091 780.383 792.054C810.793 801.437 820.588 806.075 859.972 829.735C896.412 851.626 913.317 867.047 923.968 888.11C929.897 899.836 1002.2 1146.08 1005.27 1165.01C1006.57 1173.03 1004.91 1175.24 975.919 1204.21C947.884 1232.23 919.267 1254.1 889.958 1269.91C881.088 1274.69 879.284 1282.19 885.717 1287.53C892.577 1293.22 981.149 1278.96 1056.46 1260.04C1120.58 1243.93 1228.36 1205.99 1238.34 1196.02C1244.06 1190.3 1239.97 1181.42 1231.6 1181.42C1189.86 1181.38 1122.66 1171.49 1089.5 1160.51C1074.66 1155.59 1073.17 1154.41 1070.86 1145.66C1063.79 1119 1006.16 875.995 1004.76 866.977C1002.62 853.238 1008.93 823.501 1017.62 806.357C1036.77 768.575 1058.24 736.89 1078.99 715.775C1111.17 683.022 1128.19 654.017 1138.19 614.882C1143.79 592.986 1142.68 545.889 1135.93 518.607C1126.36 479.945 1088.31 390.773 1057.61 335.048C1025.55 276.839 970.756 202.633 959.251 201.825C955.787 201.582 925.586 209.335 892.14 219.052ZM800.833 257.696C717.168 281.519 647.707 302.077 646.47 303.378C642.836 307.207 631.29 356.548 626.676 387.948C623.214 411.533 622.665 430.1 623.76 486.831C624.966 549.275 625.83 560.07 631.909 588.679C650.863 677.866 691.679 737.032 756.286 768.984C785.956 783.657 813.565 790.608 849.443 792.445C911.855 795.634 976.141 776.672 1033.17 738.251C1064.36 717.234 1096.32 682.153 1111.54 652.212C1125.33 625.095 1128.92 607.838 1128.72 569.613C1128.55 537.864 1127.65 530.525 1121.43 510.114C1108.15 466.498 1066.53 374.354 1038.32 326.115C1011.27 279.86 962.693 213.666 956.154 214.144C954.392 214.274 884.498 233.87 800.833 257.696ZM853.958 269.195C803.783 283.762 761.34 297.071 759.637 298.774C757.238 301.172 757.251 302.571 759.694 305.013C762.168 307.486 782.952 302.406 856.603 281.322C908.17 266.558 951.957 253.031 953.903 251.259C958.167 247.379 955.636 242.298 949.563 242.539C947.157 242.632 904.134 254.627 853.958 269.195ZM195.233 257.245C150.158 318.672 111.858 396.402 77.6461 495.886C57.9409 553.189 52.8845 577.09 52.75 613.591C52.6128 650.874 56.6807 668.53 73.0142 701.547C87.0343 729.885 103.73 750.544 131.154 773.495C148.445 787.962 155.968 797.013 176.219 827.694C189.587 847.95 202.518 869.717 204.953 876.062C214.514 900.969 213.557 911.847 188.485 1063.31C175.567 1141.33 164.999 1205.55 164.999 1206.01C164.999 1207.47 130.342 1220.14 111.757 1225.48C89.9403 1231.74 45.683 1240.03 22.1893 1242.25C3.69253 1244 -2.07801 1247.76 0.63389 1256.3C1.93809 1260.41 9.53555 1263.82 35.133 1271.82C136.583 1303.52 248.09 1323.69 326.729 1324.59L362.957 1325L363.762 1318.03C364.499 1311.64 362.82 1310.23 343.06 1300.73C331.232 1295.05 312.787 1284.61 302.069 1277.53C277.957 1261.6 238.088 1227.04 234.341 1218.81C232.082 1213.86 237.043 1186.53 260.472 1074.83C292.531 921.996 293.928 917.572 317.509 894.274C337.054 874.965 398.214 834.056 416.005 828.39C483.313 806.957 538.151 748.493 561.676 673.091C574.224 632.877 577.549 605.541 577.414 543.744C577.288 484.648 574.558 453.191 565.744 409.223C560.092 381.023 542.271 323.665 537.023 316.784C534.601 313.607 492.158 304.004 374.602 280.031C287.073 262.184 212.936 246.991 209.854 246.272C205.447 245.242 202.318 247.591 195.233 257.245ZM194.074 280.541C152.49 341.388 124.98 398.376 90.1162 495.886C70.1211 551.802 65.5901 573.522 65.5616 613.591C65.5383 645.871 66.2732 651.997 72.3181 669.93C90.6001 724.157 132.544 768.228 194.757 798.578C243.786 822.495 285.394 831.127 340.667 828.845C381.079 827.18 400.507 822.844 431.127 808.665C522.136 766.518 566.057 680.87 566.083 545.482C566.099 472.212 557.003 409.621 538.203 353.604L528.217 323.854L375.72 292.614C291.845 275.432 220.14 260.596 216.375 259.649C210.058 258.058 208.337 259.669 194.074 280.541ZM136.472 446.087C122.237 465.88 107.11 497.624 99.7916 523.048C94.655 540.906 93.8373 549.601 93.8373 586.428C93.8373 623.983 94.567 631.433 99.9029 648.424C123.679 724.121 177.482 773.169 260.179 794.543C318.426 809.593 391.841 800.93 439.294 773.405C461.6 760.467 495.276 726.809 508.605 704.134C539.758 651.13 547.022 581.355 528.598 512.09C514.66 459.692 495.876 440.429 458.702 440.411C435.255 440.401 423.274 444.561 361.542 474.163C291.824 507.591 264.05 514.131 232.103 504.647C205.142 496.646 179.899 474.401 162.748 443.536C158.827 436.482 154.081 431.272 151.556 431.248C149.144 431.228 142.356 437.907 136.472 446.087ZM132.019 486.185C127.363 492.065 118.022 520.161 114.311 539.444C101.73 604.814 125.42 675.497 175.425 721.78C195.601 740.452 229.743 759.135 259.449 767.757C282.356 774.406 330.174 777.583 333.217 772.66C337.681 765.437 332.756 763.083 309.775 761.453C277.983 759.197 255.822 753.415 228.397 740.222C177.748 715.858 145.048 675.393 130.945 619.645C126.535 602.211 125.79 592.942 126.729 567.226C127.705 540.513 129.079 532.509 136.213 512.018C140.801 498.835 143.847 486.904 142.98 485.502C140.791 481.957 135.085 482.314 132.019 486.185ZM1036.76 583.891C1031.62 585.161 1018.22 589.939 1007 594.507C977.489 606.516 947.744 607.52 898.775 598.16C825.351 584.124 801.728 584.581 768.849 600.675C735.129 617.179 707.12 655.145 707.12 684.344C707.12 697.951 707.386 698.433 722.84 712.801C762.383 749.569 815.935 767.292 877.907 764.125C970.881 759.373 1047.67 711.16 1083.77 634.869C1092.29 616.853 1093.34 605.882 1087.35 597.338C1079.11 585.575 1055.42 579.281 1036.76 583.891ZM809.334 615.886C778.977 622.615 749.783 644.694 764.018 650.155C766.135 650.967 773.391 647.974 780.139 643.504C807.23 625.566 833.751 623.828 864.904 637.95C890.608 649.602 906.401 653.689 925.705 653.689C954.11 653.689 995.821 639.727 997.78 629.566C999.221 622.089 990.865 621.763 975.427 628.689C967.255 632.354 952.177 636.657 941.924 638.247C919.07 641.792 902.426 638.853 873.604 626.187C856.919 618.851 831.425 611.659 825.155 612.515C824.28 612.634 817.161 614.15 809.334 615.886ZM1012.47 765.127C968.59 789.516 919.965 803.08 871.883 804.337C857.41 804.715 845.608 805.607 845.657 806.318C845.704 807.03 856.965 814.015 870.68 821.84C901.546 839.449 922.496 858.373 932.847 877.997C937.546 886.904 951.31 929.7 966.787 983.524C981.104 1033.32 999.12 1095.85 1006.82 1122.47L1020.82 1170.86L1015.67 1179.38C1006 1195.35 953.623 1244.28 930.399 1259.03C918.081 1266.86 907.927 1273.96 907.834 1274.83C907.405 1278.84 996.041 1262.75 1053.87 1248.31C1102.11 1236.27 1206.3 1201.16 1213.78 1194.43C1214.91 1193.41 1203.7 1191.83 1188.87 1190.92C1140.88 1187.99 1064.43 1169.97 1061.83 1160.98C1061.18 1158.71 1045.88 1095.73 1027.85 1021.03C993.727 879.715 989.941 857.659 995.422 832.115C998.318 818.609 1012.88 787.343 1025.84 766.837C1029.36 761.249 1031.87 756.313 1031.41 755.868C1030.96 755.42 1022.43 759.588 1012.47 765.127ZM190.876 826.595C211.518 857.449 218.616 873.512 221.964 896.944C224.622 915.531 223.804 921.885 200.373 1064.8C181.138 1182.13 175.099 1214.01 171.639 1216.54C161.498 1223.96 94.8983 1243.46 60.7382 1249.02C41.1079 1252.21 26.5729 1255.68 28.436 1256.72C30.2966 1257.76 50.4314 1263.97 73.1798 1270.51C144.088 1290.89 238.07 1307.96 302.146 1312.09C315.667 1312.96 329.348 1314.21 332.552 1314.86C342.432 1316.87 339 1312.1 326.082 1305.87C290.895 1288.9 219.34 1229.47 219.34 1217.22C219.34 1214.49 232.607 1149.07 248.824 1071.83C285.355 897.839 284.744 899.296 336.62 862.758C351.105 852.555 363.943 843.369 365.149 842.344C366.355 841.32 355.292 841.092 340.566 841.842C294.174 844.202 249.903 835.82 205.108 816.198C192.299 810.587 180.32 805.346 178.488 804.551C176.656 803.755 182.23 813.676 190.876 826.595Z" fill="#274066"/>
<path fill-rule="evenodd" clip-rule="evenodd" d="M489.687 0.55473C481.227 2.15881 469.132 7.31931 461.425 12.6128C456.273 16.1515 448.109 24.3269 444.504 29.5575C435.973 41.9363 431.98 55.3973 432 71.7048C432.026 92.8148 438.593 113.168 452.183 134.264C466.391 156.317 494.446 183.291 553.423 231.604L566.114 242L583.09 228.013C625.4 193.15 656.698 164.409 669.255 148.887C684.767 129.711 694.577 109.909 698.798 89.2468C699.936 83.6786 700.187 78.8983 699.879 68.6907C699.532 57.1786 699.153 54.4428 697.064 48.3553C689.624 26.6701 673.642 10.5984 652.246 3.2843C641.521 -0.382027 626.003 -1.05556 614.659 1.65187C596.25 6.0458 578.223 19.5599 569.295 35.6601C567.743 38.457 566.275 40.7497 566.031 40.7541C565.787 40.7585 564.484 38.6697 563.134 36.112C557.223 24.903 544.686 13.0541 532.34 7.01002C521.872 1.88407 516.975 0.751467 503.891 0.429766C497.3 0.266699 490.908 0.323424 489.687 0.55473Z" fill="#274066"/>
</svg>
